<svg xmlns="http://www.w3.org/2000/svg" viewBox="0 0 400 500" width="400" height="500">
  <defs>
    <linearGradient id="bg" x1="0" y1="0" x2="1" y2="1">
      <stop offset="0" stop-color="#7A1F2B"/>
      <stop offset="1" stop-color="#3B2924"/>
    </linearGradient>
  </defs>
  <rect width="400" height="500" fill="url(#bg)"/>
  <circle cx="200" cy="205" r="80" fill="none" stroke="#C9A227" stroke-width="2" opacity="0.6"/>
  <path d="M200 150c-30 0-55 25-55 65 0 45 35 85 55 100 20-15 55-55 55-100 0-40-25-65-55-65z" fill="#FFF8ED" opacity="0.92"/>
  <circle cx="200" cy="205" r="34" fill="#7A1F2B"/>
  <path d="M120 320c10-35 40-55 80-55s70 20 80 55" fill="none" stroke="#FFF8ED" stroke-width="6" stroke-linecap="round" opacity="0.85"/>
  <g stroke="#C9A227" stroke-width="1.5" opacity="0.55" fill="none">
    <circle cx="60" cy="60" r="24"/>
    <circle cx="340" cy="440" r="24"/>
  </g>
  <text x="200" y="470" font-family="Georgia, serif" font-size="20" fill="#C9A227" text-anchor="middle" letter-spacing="3">BRIDE</text>
</svg>
